<svg width="163" height="990" viewBox="0 0 163 990" fill="none" xmlns="http://www.w3.org/2000/svg">
<path d="M8.73886 61.1882C10.7261 58.4851 12.2166 55.0448 13.4586 51.8502C16.1911 46.444 18.4268 41.2836 22.1529 38.3348C24.3886 36.6146 26.8726 36.3689 29.1083 37.5976C31.8408 38.8262 33.5796 41.7751 33.0828 44.9696C32.8344 47.427 31.0956 52.096 22.1529 54.7991L21.6561 55.0448L21.9045 55.2905C42.0255 81.5842 42.0255 81.5842 42.0255 81.5842L42.2739 81.5842C42.5223 81.3385 66.3694 72.7378 66.3694 43.741C66.3694 29.9798 62.1465 18.6759 54.4459 10.8124C47.242 3.93177 36.8089 -5.6799e-06 26.3758 0.24573C0.541412 0.7372 -8.89807 18.9216 -16.1019 32.1914C-19.0828 37.8433 -21.8153 43.0037 -25.0446 44.9696C-27.7771 46.6898 -30.2611 47.1812 -32.2484 45.9526C-34.2356 44.7239 -35.4777 42.0208 -35.2293 39.072C-34.9809 34.6487 -31.7516 30.4712 -26.7834 28.5053L-26.535 28.2596L-46.1592 -9.14264e-06L-46.4076 0.245726C-60.8153 10.3209 -69.0127 26.7852 -69.0127 42.758C-69.0127 46.9355 -68.5159 51.113 -67.5223 55.0448C-62.8025 71.0176 -49.3885 81.0928 -30.758 82.0757C-13.8662 83.3044 -0.700641 76.1781 8.73886 61.1882Z" fill="white" fill-opacity="0.25"/>
<path d="M15.4459 219.624C43.7643 211.761 64.3822 186.45 64.3822 156.225C64.3822 119.856 34.3248 90.3674 -2.43949 90.3674C-39.4522 90.3674 -69.2611 119.856 -69.2611 156.225C-69.2611 171.214 -64.293 184.976 -55.5987 196.034C-55.1019 196.771 -55.1019 197.508 -55.3503 198.245L-67.2739 218.641C-68.2675 220.116 -67.2739 221.836 -65.535 221.836L-2.43949 221.836C3.7707 221.836 9.73249 221.099 15.4459 219.624ZM-7.65604 187.187C-22.8089 184.73 -34.4841 171.706 -34.4841 156.225C-34.4841 154.504 -34.4841 153.03 -34.2356 151.556C-31.7516 136.32 -18.586 124.525 -2.43949 124.525C15.1975 124.525 29.6051 138.777 29.6051 156.225C29.6051 173.672 15.1975 187.679 -2.43949 187.679C-4.17834 187.679 -5.9172 187.433 -7.65604 187.187Z" fill="white" fill-opacity="0.25"/>
<path d="M-69.5095 273.289L163 273.289L163 235.691L-69.5095 235.691L-69.5095 273.289Z" fill="white" fill-opacity="0.25"/>
<path d="M63.1401 374.945L63.1401 374.699L-0.700624 374.207C-10.6369 374.207 -33.9872 371.504 -34.2357 348.651C-34.2357 341.77 -32.2484 335.873 -27.7771 331.695C-22.0637 326.043 -12.8726 323.094 -0.203826 323.094L63.1401 323.094L63.1401 286.971L-6.414 286.971C-27.5286 286.971 -44.6688 293.606 -56.3439 305.893C-66.7771 316.705 -71.7452 331.695 -70.5032 347.668C-68.7643 372.733 -56.3439 386.494 -54.6051 388.214L-70.7516 409.593L-71 410.085L62.6433 410.576L63.1401 410.576L63.1401 374.945Z" fill="white" fill-opacity="0.25"/>
<path d="M158.032 515.943L51.465 515.943C57.9235 501.691 59.414 493.827 59.414 485.963C59.414 449.595 30.3503 420.352 -5.6688 420.352C-41.6879 420.352 -71 449.595 -71 485.963C-71 493.827 -69.5095 501.69 -66.7771 508.817C-64.5414 514.714 -61.5605 520.366 -57.8344 525.281C-57.0892 526.018 -57.0892 527.247 -57.586 528.23L-68.5159 547.397C-69.5095 549.117 -68.2675 551.329 -66.2803 551.329L158.032 551.329L158.032 515.943ZM-10.1401 516.435C-13.3694 515.943 -16.5987 514.96 -19.5796 513.486C-29.7643 508.325 -36.7197 497.759 -36.7197 485.963C-36.7197 484.243 -36.4713 482.769 -36.2229 481.294C-34.2357 466.305 -20.8217 454.755 -4.92357 454.755C12.465 454.755 26.6242 468.762 26.6242 485.963C26.6242 497.759 19.6688 508.325 9.48406 513.486C5.26113 515.697 0.292977 516.926 -4.92358 516.926C-6.66242 516.926 -8.40128 516.68 -10.1401 516.435Z" fill="white" fill-opacity="0.25"/>
<path d="M15.4458 690.258L15.6943 690.258C25.6306 687.309 34.8216 682.149 42.2739 675.268C48.484 669.616 53.7006 662.49 57.4267 654.626C58.1719 653.152 58.9172 651.432 59.6624 649.712C59.9108 649.22 59.9108 648.729 60.1592 648.237C60.4076 647.5 60.656 646.517 61.1528 645.78C61.4013 644.305 61.8981 642.585 62.3949 641.111C62.6433 639.145 63.1401 637.179 63.3885 635.213C63.6369 634.23 63.6369 633.247 63.6369 632.264C63.8853 631.527 63.8853 630.79 63.8853 630.053C63.8853 629.561 63.8853 629.07 63.8853 628.578C64.1338 626.367 63.8853 624.401 63.8853 622.435C63.8853 621.698 63.8853 620.961 63.6369 620.223C63.6369 619.24 63.3885 618.258 63.3885 617.275C63.1401 615.309 62.6433 613.343 62.3949 611.377C61.8981 609.903 61.4013 608.182 61.1529 606.708C60.656 605.971 60.4076 604.988 60.1592 604.251C59.9108 603.759 59.9108 603.268 59.6624 602.776C49.7261 576.728 24.1401 558.544 -5.42037 559.527C-12.3758 559.772 -18.8344 561.001 -25.0446 563.213C-34.9809 566.407 -43.9235 572.059 -51.1274 579.186C-57.586 585.575 -62.5541 593.438 -66.0318 601.793C-66.0318 602.039 -66.0318 602.285 -66.2803 602.53C-66.5287 603.759 -67.0255 604.742 -67.5223 605.971C-67.5223 606.462 -67.7707 607.199 -68.0191 607.691C-68.2675 608.674 -68.5159 609.657 -68.7643 610.64C-69.0127 612.36 -69.5095 613.834 -69.758 615.554C-69.758 616.292 -70.0064 617.275 -70.0064 618.012C-70.0064 618.258 -70.2548 618.503 -70.2548 618.749C-70.2548 619.24 -70.2548 619.978 -70.2548 620.469C-70.5032 620.961 -70.5032 621.452 -70.5032 621.944C-70.5032 622.435 -70.5032 622.927 -70.5032 623.418C-70.5032 624.155 -70.5032 624.892 -70.5032 625.875L-70.5032 626.613C-70.5032 627.596 -70.5032 628.333 -70.5032 629.07C-70.5032 629.561 -70.5032 630.053 -70.5032 630.544C-70.5032 631.036 -70.5032 631.527 -70.2548 632.019C-70.2548 632.51 -70.2548 633.247 -70.2548 633.739C-70.2548 633.985 -70.2548 634.23 -70.0064 634.476C-70.0064 635.213 -69.758 636.196 -69.758 636.933C-69.5095 638.654 -69.0127 640.128 -68.7643 641.848C-68.5159 642.831 -68.2675 643.814 -68.0191 644.797C-67.7707 645.288 -67.5223 646.026 -67.5223 646.517C-67.0255 647.746 -66.5287 648.729 -66.2803 649.957C-66.0318 650.203 -66.0318 650.449 -66.0318 650.695C-64.7898 653.643 -63.2994 656.592 -61.8089 659.295C-61.8089 659.295 -61.8089 659.295 -61.5605 659.295C-53.3631 674.04 -39.4522 685.098 -22.8089 690.012L-12.6242 657.084C-18.8344 655.364 -24.051 651.678 -28.0255 647.009C-32 642.34 -34.7325 636.442 -35.4777 630.053C-35.4777 629.07 -35.7261 628.333 -35.7261 627.35C-35.7261 626.858 -35.7261 626.121 -35.7261 625.384C-35.7261 625.138 -35.7261 625.138 -35.7261 625.138C-35.7261 624.155 -35.4777 623.172 -35.4777 622.435C-34.9809 618.503 -33.7388 614.572 -32 611.131L-3.43315 658.558L15.4458 690.258ZM-6.41401 594.175C-5.66879 594.175 -5.17198 594.175 -4.42675 593.93C5.75795 593.684 14.7006 597.861 20.9108 604.742C25.879 610.148 28.8599 617.275 29.1083 625.138L29.1083 627.35C28.8599 633.739 26.8726 639.391 23.6433 644.06L-6.41401 594.175Z" fill="white" fill-opacity="0.25"/>
<path d="M51.7134 804.842C52.9554 803.859 53.949 802.63 54.9427 800.91L55.1911 800.91C55.1911 800.419 55.4395 800.173 55.6879 799.927C56.1847 799.436 56.4331 798.944 56.6815 798.453L56.9299 798.207C62.3949 788.623 65.1274 777.32 64.1337 765.524C62.3949 742.425 49.9745 728.91 46 725.469C45.5032 724.978 45.5032 724.241 46 723.749L57.4267 706.056C57.6751 705.565 57.6751 704.828 57.4267 704.09C57.1783 703.353 56.4331 703.107 55.6879 703.107L-68.0191 702.616C-68.7643 702.616 -69.5096 703.353 -69.5096 704.09L-69.758 737.019C-69.758 737.756 -69.0127 738.493 -68.2675 738.493L-5.66881 738.985C22.8981 739.231 27.6178 754.958 27.8662 764.296C27.8662 767.49 27.6178 777.565 19.172 784.692C18.9235 785.183 18.6751 785.675 18.6751 786.166C18.6751 786.903 18.9235 787.395 19.4203 787.64C26.1273 792.064 48.2356 805.333 48.484 805.579C49.4777 806.071 50.9681 805.825 51.7134 804.842Z" fill="white" fill-opacity="0.25"/>
<path d="M59.6624 847.922L59.9108 814.011L59.9108 813.765L-70.7516 814.257L-71 814.257L-71 848.168L-71 848.414L59.414 847.922L59.6624 847.922ZM120.771 832.687C120.771 831.95 120.771 831.213 120.771 830.475C120.274 820.646 112.573 812.291 102.637 811.308C101.643 811.062 100.65 811.062 99.656 811.062C89.7197 811.554 81.5223 818.68 80.2802 828.509C80.2802 829.492 80.2802 830.23 80.2802 831.213C80.2802 831.458 80.2802 831.458 80.2802 831.704C80.2802 831.95 80.2802 832.195 80.2802 832.195C80.2802 832.441 80.2802 832.687 80.2802 832.687C80.2802 832.933 80.2802 832.933 80.2802 833.178C80.2802 833.424 80.2802 833.424 80.2802 833.67L80.5286 834.161C80.5286 834.407 80.5286 834.407 80.5286 834.653C80.5286 834.653 80.5286 834.653 80.5286 834.899C80.5286 834.899 80.5286 835.144 80.777 835.144L80.777 835.39L80.777 835.636C82.7643 843.991 89.7197 850.134 98.414 851.117C99.4076 851.117 100.65 851.117 101.643 851.117C111.828 850.626 120.025 842.516 120.771 832.687Z" fill="white" fill-opacity="0.25"/>
<path d="M15.4458 987.788C43.7643 979.925 64.3821 954.614 64.3821 924.389C64.3821 888.02 34.3248 858.531 -2.43952 858.531C-39.4523 858.531 -69.2612 888.02 -69.2612 924.389C-69.2612 939.378 -64.293 953.14 -55.5988 964.198C-55.1019 964.935 -55.1019 965.672 -55.3503 966.409L-67.2739 986.805C-68.2675 988.28 -67.2739 990 -65.535 990L-2.43953 990C3.77066 990 9.73245 989.263 15.4458 987.788ZM-7.65608 955.351C-22.8089 952.894 -34.4841 939.87 -34.4841 924.389C-34.4841 922.668 -34.4841 921.194 -34.2357 919.72C-31.7516 904.484 -18.586 892.689 -2.43952 892.689C15.1974 892.689 29.6051 906.941 29.6051 924.389C29.6051 941.836 15.1974 955.843 -2.43953 955.843C-4.17837 955.843 -5.91723 955.597 -7.65608 955.351Z" fill="white" fill-opacity="0.25"/>
</svg>
